<?xml version="1.0" encoding="utf-8"?>
<!-- Generator: Adobe Illustrator 25.2.0, SVG Export Plug-In . SVG Version: 6.00 Build 0)  -->
<svg version="1.1" id="Layer_1" xmlns="http://www.w3.org/2000/svg" xmlns:xlink="http://www.w3.org/1999/xlink" x="0px" y="0px"
	 viewBox="0 0 726.1 769" style="enable-background:new 0 0 726.1 769;" xml:space="preserve">
<style type="text/css">
	.st0{fill:#FFFFFF;}
	.st1{fill:#DA1820;}
	.st2{fill:url(#SVGID_1_);}
	.st3{fill:#D4D3D1;}
</style>
<g>
	<path class="st0" d="M363,715.1l-1.6-0.3c-74.9-12.2-143.7-49.9-199-109c-55.1-58.8-94.5-136.5-114-224.5
		c-12.7-57.5-12-116.9,2.3-176.6c1.3-5.6,2.8-11.2,4.3-16.6c21.8-77.5,58.3-126.5,59.8-128.5l4.3-5.8l6.8,2.3
		c63.4,21.3,123.4,20.2,162.6,15.6c42.7-5.1,70.7-15.3,71-15.5L363,55l3.5,1.3c0.3,0.1,28.3,10.4,71,15.4
		c39.2,4.6,99.2,5.7,162.6-15.6l6.8-2.3l4.3,5.8c1.5,2,38.1,51.1,59.8,128.5c1.5,5.4,3,11,4.3,16.6c14.2,59.7,15,119.1,2.3,176.6
		l0,0c-19.5,88.1-58.9,165.7-114,224.5c-55.3,59-124.1,96.7-199,109L363,715.1z M126.8,77.4c-9.9,14.8-36,57.2-52.5,116.1
		c-1.5,5.2-2.8,10.5-4.1,15.9c-13.5,56.7-14.3,113.1-2.2,167.6C106,548.9,219,670.5,363,694.9c144-24.3,257-145.9,295.1-317.8
		c12.1-54.5,11.3-110.9-2.2-167.6c-1.3-5.3-2.7-10.7-4.1-15.9c-16.6-59.1-42.6-101.3-52.5-116.1c-64.5,20.1-124.9,18.9-164.8,14.1
		C398,87.1,372.1,79.3,363,76.2c-9.1,3-34.9,10.9-71.5,15.3C251.7,96.3,191.3,97.6,126.8,77.4z"/>
</g>
<path class="st1" d="M661.5,190.8H64.6c21.5-76.5,58.2-125.2,58.2-125.2c126.6,42.5,240.2,0,240.2,0s113.7,42.5,240.2,0
	C603.3,65.6,640,114.3,661.5,190.8z"/>
<radialGradient id="SVGID_1_" cx="266.2036" cy="174.441" r="447.7815" gradientUnits="userSpaceOnUse">
	<stop  offset="0" style="stop-color:#145BF3"/>
	<stop  offset="1" style="stop-color:#111F5C"/>
</radialGradient>
<path class="st2" d="M667.9,379.2C628.9,555.3,511,680.8,363,705c-148-24.2-265.9-149.7-304.9-325.8c-14.2-64.1-9.5-123,2.2-172.1
	h605.3C677.4,256.2,682.1,315.1,667.9,379.2z"/>
<path class="st0" d="M665.7,207.1H60.4c1.3-5.5,2.7-11,4.2-16.2h596.8C662.9,196.1,664.3,201.5,665.7,207.1z"/>
<path class="st0" d="M665.7,207.1H60.4c1.3-5.5,2.7-11,4.2-16.2h596.8C662.9,196.1,664.3,201.5,665.7,207.1z"/>
<g>
	<g>
		<path class="st3" d="M105.5,261.2c15.2-2.7,35.1-4.1,55.8-4.1c35.1,0,58,6.5,75.4,19.6c19.1,14.2,31,36.5,31,69.1
			c0,35.1-12.8,59.3-30.2,74.3c-19.3,16.1-49,23.7-84.9,23.7c-21.5,0-37-1.4-47.1-2.7V261.2z M146.9,410.6c3.5,0.8,9.5,0.8,14.4,0.8
			c37.8,0.3,62.6-20.4,62.6-64.2c0-38.1-22.3-58.3-58.3-58.3c-9,0-15.2,0.8-18.8,1.6V410.6z"/>
		<path class="st3" d="M378.3,444.9c-54.2,0-86.3-41.1-86.3-93.4c0-55,35.4-96.1,89.3-96.1c56.3,0,87.1,42.2,87.1,92.8
			c0,60.4-36.2,96.6-89.8,96.6H378.3z M380.5,412c28,0,44.1-26.4,44.1-62.3c0-32.9-15.5-61.2-44.1-61.2c-28.6,0-44.6,27.8-44.6,62.1
			c0,34.6,16.6,61.5,44.4,61.5H380.5z"/>
		<path class="st3" d="M529.1,293.3h-49.5v-34.8h141v34.8h-50.1v148.6h-41.4V293.3z"/>
	</g>
</g>
<g>
	<g>
		<path class="st3" d="M215.9,493.7c3.5-0.6,8.4-1,15.3-1c7,0,12,1.3,15.3,4.1c3.3,2.5,5.4,6.6,5.4,11.5c0,5-1.6,9.2-4.6,11.9
			c-3.9,3.6-9.6,5.3-16.3,5.3c-1.5,0-2.8-0.1-3.9-0.3v18h-11.2V493.7z M227.1,516.4c1,0.2,2.1,0.3,3.8,0.3c6,0,9.7-3,9.7-8.1
			c0-4.6-3.2-7.4-8.9-7.4c-2.2,0-3.8,0.1-4.6,0.4V516.4z"/>
		<path class="st3" d="M258.7,490.2H270v20.9h0.1c1.2-1.6,2.7-2.9,4.5-3.8c1.7-0.9,3.8-1.4,5.9-1.4c7.2,0,12.7,5,12.7,16v21.2h-11.3
			v-20c0-4.8-1.6-8-5.9-8c-3,0-4.8,1.9-5.7,4c-0.3,0.7-0.4,1.6-0.4,2.5v21.6h-11.3V490.2z"/>
		<path class="st3" d="M309.4,506.8l5.4,17.9c0.6,2.1,1.3,4.8,1.8,6.8h0.2c0.5-2,1.1-4.7,1.6-6.8l4.5-17.9H335l-8.5,24
			c-5.2,14.5-8.7,20.2-12.8,23.9c-3.9,3.4-8,4.7-10.9,5l-2.4-9.5c1.4-0.3,3.2-1,4.9-1.9c1.7-0.9,3.6-2.8,4.7-4.5
			c0.4-0.6,0.6-1.2,0.6-1.6s-0.1-1-0.4-1.9l-13.4-33.3H309.4z"/>
		<path class="st3" d="M338.5,533.2c2.1,1.3,6.4,2.7,9.7,2.7c3.4,0,4.8-1.1,4.8-3c0-1.9-1.1-2.8-5.3-4.2
			c-7.6-2.5-10.5-6.6-10.4-10.9c0-6.8,5.8-12,14.8-12c4.2,0,8,1,10.2,2.2l-1.9,7.7c-1.6-0.8-4.8-2-7.9-2c-2.8,0-4.3,1.1-4.3,2.9
			c0,1.7,1.4,2.7,5.9,4.2c6.9,2.4,9.7,5.9,9.8,11.2c0,6.8-5.3,11.8-15.7,11.8c-4.8,0-9-1.1-11.8-2.6L338.5,533.2z"/>
		<path class="st3" d="M376.5,502.3c-3.6,0-5.9-2.5-5.9-5.7c0-3.2,2.4-5.7,6-5.7c3.6,0,5.9,2.5,6,5.7
			C382.6,499.8,380.3,502.3,376.5,502.3L376.5,502.3z M370.9,543.1v-36.4h11.3v36.4H370.9z"/>
		<path class="st3" d="M418.6,542.2c-2,1-5.8,1.7-10.1,1.7c-11.8,0-19.3-7.2-19.3-18.6c0-10.6,7.3-19.3,20.8-19.3
			c3,0,6.2,0.5,8.6,1.4l-1.8,8.4c-1.3-0.6-3.3-1.1-6.3-1.1c-6,0-9.8,4.2-9.7,10.1c0,6.7,4.5,10.2,10,10.2c2.7,0,4.8-0.4,6.5-1.2
			L418.6,542.2z"/>
		<path class="st3" d="M455.4,534.4c0,3.4,0.1,6.8,0.6,8.8h-10.2l-0.7-3.6h-0.2c-2.4,2.9-6.1,4.5-10.4,4.5
			c-7.4,0-11.8-5.4-11.8-11.2c0-9.4,8.5-13.9,21.3-13.9v-0.4c0-1.9-1-4.7-6.6-4.7c-3.7,0-7.7,1.3-10,2.7l-2.1-7.2
			c2.5-1.4,7.5-3.3,14.1-3.3c12.1,0,15.9,7.1,15.9,15.7V534.4z M444.5,525.9c-6,0-10.6,1.4-10.6,5.7c0,2.9,1.9,4.3,4.5,4.3
			c2.8,0,5.1-1.9,5.9-4.2c0.1-0.6,0.2-1.3,0.2-1.9V525.9z"/>
		<path class="st3" d="M464.4,490.2h11.3v52.9h-11.3V490.2z"/>
		<path class="st3" d="M484.8,533.2c2.1,1.3,6.4,2.7,9.7,2.7c3.4,0,4.8-1.1,4.8-3c0-1.9-1.1-2.8-5.3-4.2
			c-7.6-2.5-10.5-6.6-10.4-10.9c0-6.8,5.8-12,14.8-12c4.2,0,8,1,10.2,2.2l-1.9,7.7c-1.6-0.8-4.8-2-7.9-2c-2.8,0-4.3,1.1-4.3,2.9
			c0,1.7,1.4,2.7,5.9,4.2c6.9,2.4,9.7,5.9,9.8,11.2c0,6.8-5.3,11.8-15.7,11.8c-4.8,0-9-1.1-11.8-2.6L484.8,533.2z"/>
	</g>
</g>
</svg>
